# xmcd
#
# Track frame offsets:
#	225
#	14396
#	28478
#	42607
#	53508
#	71220
#	85327
#	96799
#	109019
#	129544
#	142160
#	154171
#	166715
#	180734
#	191610
#	204149
#	215551
#	226202
#	239197
#	248334
#	261951
#	274881
#	286461
#	296903
#
# Disc length: 4071 seconds
#
# Revision: 1
# Processed by: cddbd v1.5PL3 Copyright (c) Steve Scherf et al.
# Submitted via: EasyCDDAExtractor 6.5.0.3
#
DISCID=720fe418
DTITLE=Stanley Black - Exotic Percussion and Intimate Percussion
DYEAR=2003
DGENRE=Ethnic
TTITLE0=Temptation
TTITLE1=By The Waters Of The Minnetonka
TTITLE2=Adieu Tristesse
TTITLE3=Jungle Drums
TTITLE4=Hymn To The Sun
TTITLE5=Babalu
TTITLE6=Old Devil Moon
TTITLE7=Baia
TTITLE8=The Moon Of Manakoora
TTITLE9=Misirlou
TTITLE10=Flamingo
TTITLE11=Caravan
TTITLE12=Mr. Wonderful
TTITLE13=Petite Fleur
TTITLE14=Theme From "A Summer Place"
TTITLE15=Mack The Knife
TTITLE16=Theme From "Limelight"
TTITLE17=Memories Are Made Of This
TTITLE18=The Poor People Of Paris
TTITLE19=On The Street Where You Live
TTITLE20=When I Fall In Love
TTITLE21=No Other Love
TTITLE22=Melodie D'Amour
TTITLE23=When The Saints Go Marching In
EXTD=
EXTT0=
EXTT1=
EXTT2=
EXTT3=
EXTT4=
EXTT5=
EXTT6=
EXTT7=
EXTT8=
EXTT9=
EXTT10=
EXTT11=
EXTT12=
EXTT13=
EXTT14=
EXTT15=
EXTT16=
EXTT17=
EXTT18=
EXTT19=
EXTT20=
EXTT21=
EXTT22=
EXTT23=
PLAYORDER=
